<svg width="551" height="75" viewBox="0 0 551 75" fill="none" xmlns="http://www.w3.org/2000/svg">
<path d="M65.6 33.8V69.5C61.8 71.2333 57.5333 72.5667 52.8 73.5C48.1333 74.4333 43.3333 74.9 38.4 74.9C30.6667 74.9 23.9333 73.4333 18.2 70.5C12.5333 67.5667 8.16667 63.3667 5.1 57.9C2.03333 52.3667 0.5 45.8333 0.5 38.3C0.5 30.9667 2.03333 24.5667 5.1 19.1C8.16667 13.5667 12.5 9.33333 18.1 6.39999C23.7 3.4 30.2333 1.9 37.7 1.9C42.8333 1.9 47.6667 2.56666 52.2 3.9C56.8 5.23333 60.5333 7.06666 63.4 9.4L57.5 22.7C54.2333 20.5667 51.0667 19.0333 48 18.1C45 17.1 41.7667 16.6 38.3 16.6C31.9667 16.6 27.2333 18.4 24.1 22C21.0333 25.5333 19.5 30.9667 19.5 38.3C19.5 45.9 21.1 51.5333 24.3 55.2C27.5667 58.8667 32.5667 60.7 39.3 60.7C42.4333 60.7 45.5667 60.3667 48.7 59.7V46.5H36.3V33.8H65.6ZM127.598 23.2V74H109.898V67.2C106.631 72.2667 101.798 74.8 95.3977 74.8C88.931 74.8 84.0977 73 80.8977 69.4C77.7643 65.8 76.1977 60.3 76.1977 52.9V23.2H94.2977V53.4C94.2977 58.4 96.4643 60.9 100.798 60.9C103.331 60.9 105.364 60 106.898 58.2C108.498 56.4 109.298 54 109.298 51V23.2H127.598ZM171.912 21.8C176.312 21.8 180.212 22.9 183.612 25.1C187.012 27.2333 189.645 30.3 191.512 34.3C193.445 38.3 194.412 42.9 194.412 48.1C194.412 53.3667 193.445 58.0333 191.512 62.1C189.578 66.1 186.912 69.2333 183.512 71.5C180.112 73.7 176.245 74.8 171.912 74.8C168.512 74.8 165.412 74.1333 162.612 72.8C159.812 71.4 157.712 69.5 156.312 67.1V74H138.412V0.399994H156.512V29.3C157.978 27.0333 160.078 25.2333 162.812 23.9C165.545 22.5 168.578 21.8 171.912 21.8ZM166.412 61.3C169.612 61.3 172.045 60.1667 173.712 57.9C175.445 55.6333 176.312 52.3667 176.312 48.1C176.312 44.0333 175.478 40.9333 173.812 38.8C172.145 36.6 169.678 35.5 166.412 35.5C163.145 35.5 160.645 36.6 158.912 38.8C157.178 41 156.312 44.1667 156.312 48.3C156.312 52.5667 157.178 55.8 158.912 58C160.645 60.2 163.145 61.3 166.412 61.3ZM256.365 23.2V74H238.565V67.1C237.098 69.5 234.965 71.4 232.165 72.8C229.365 74.1333 226.298 74.8 222.965 74.8C218.632 74.8 214.765 73.7333 211.365 71.6C207.965 69.4667 205.298 66.4333 203.365 62.5C201.498 58.5 200.565 53.9 200.565 48.7C200.565 43.4333 201.532 38.7667 203.465 34.7C205.398 30.6333 208.065 27.4667 211.465 25.2C214.865 22.9333 218.698 21.8 222.965 21.8C226.298 21.8 229.332 22.5333 232.065 24C234.865 25.4 237.032 27.3 238.565 29.7V23.2H256.365ZM228.565 61.3C231.765 61.3 234.232 60.2 235.965 58C237.698 55.8 238.565 52.6333 238.565 48.5C238.565 44.3 237.698 41.1 235.965 38.9C234.232 36.6333 231.765 35.5 228.565 35.5C225.432 35.5 222.965 36.6667 221.165 39C219.365 41.2667 218.465 44.5 218.465 48.7C218.465 52.7667 219.332 55.9 221.065 58.1C222.798 60.2333 225.298 61.3 228.565 61.3ZM320.623 0.399994V74H302.823V67.1C301.356 69.5 299.223 71.4 296.423 72.8C293.623 74.1333 290.556 74.8 287.223 74.8C282.889 74.8 279.023 73.7 275.623 71.5C272.223 69.2333 269.556 66.1 267.623 62.1C265.756 58.0333 264.823 53.3667 264.823 48.1C264.823 42.9 265.756 38.3 267.623 34.3C269.556 30.3 272.223 27.2333 275.623 25.1C279.023 22.9 282.889 21.8 287.223 21.8C290.423 21.8 293.356 22.4667 296.023 23.8C298.756 25.1333 300.923 26.9333 302.523 29.2V0.399994H320.623ZM292.823 61.3C296.023 61.3 298.489 60.2 300.223 58C301.956 55.7333 302.823 52.5 302.823 48.3C302.823 44.2333 301.923 41.1 300.123 38.9C298.389 36.6333 295.956 35.5 292.823 35.5C289.556 35.5 287.056 36.6 285.323 38.8C283.589 40.9333 282.723 44.0333 282.723 48.1C282.723 52.3 283.589 55.5667 285.323 57.9C287.123 60.1667 289.623 61.3 292.823 61.3ZM384.88 23.2V74H367.08V67.1C365.614 69.5 363.48 71.4 360.68 72.8C357.88 74.1333 354.814 74.8 351.48 74.8C347.147 74.8 343.28 73.7333 339.88 71.6C336.48 69.4667 333.814 66.4333 331.88 62.5C330.014 58.5 329.08 53.9 329.08 48.7C329.08 43.4333 330.047 38.7667 331.98 34.7C333.914 30.6333 336.58 27.4667 339.98 25.2C343.38 22.9333 347.214 21.8 351.48 21.8C354.814 21.8 357.847 22.5333 360.58 24C363.38 25.4 365.547 27.3 367.08 29.7V23.2H384.88ZM357.08 61.3C360.28 61.3 362.747 60.2 364.48 58C366.214 55.8 367.08 52.6333 367.08 48.5C367.08 44.3 366.214 41.1 364.48 38.9C362.747 36.6333 360.28 35.5 357.08 35.5C353.947 35.5 351.48 36.6667 349.68 39C347.88 41.2667 346.98 44.5 346.98 48.7C346.98 52.7667 347.847 55.9 349.58 58.1C351.314 60.2333 353.814 61.3 357.08 61.3Z" fill="#01BDED"/>
<path d="M449.842 45.52V74H446.122V54.44L437.682 74H434.842L426.282 54.56L426.322 74H422.602V45.52H425.922L436.282 69.04L446.522 45.52H449.842ZM474.588 53.84V74H470.588V70.56C470.001 71.76 469.121 72.68 467.948 73.32C466.801 73.96 465.454 74.28 463.908 74.28C462.121 74.28 460.548 73.8533 459.188 73C457.854 72.1467 456.814 70.9467 456.068 69.4C455.321 67.8267 454.948 66 454.948 63.92C454.948 61.84 455.321 60 456.068 58.4C456.841 56.8 457.908 55.56 459.268 54.68C460.628 53.8 462.174 53.36 463.908 53.36C465.454 53.36 466.801 53.6933 467.948 54.36C469.094 55 469.974 55.92 470.588 57.12V53.84H474.588ZM464.868 71.08C466.681 71.08 468.081 70.4533 469.068 69.2C470.081 67.92 470.588 66.1333 470.588 63.84C470.588 61.52 470.081 59.7333 469.068 58.48C468.081 57.2267 466.668 56.6 464.828 56.6C463.014 56.6 461.588 57.2533 460.548 58.56C459.534 59.84 459.028 61.6267 459.028 63.92C459.028 66.1867 459.534 67.9467 460.548 69.2C461.588 70.4533 463.028 71.08 464.868 71.08ZM490.563 53.36C491.176 53.36 491.816 53.4533 492.483 53.64L492.403 57.32C491.683 57.0533 490.896 56.92 490.043 56.92C488.203 56.92 486.816 57.48 485.883 58.6C484.976 59.6933 484.523 61.08 484.523 62.76V74H480.523V59.52C480.523 57.4133 480.416 55.52 480.202 53.84H483.963L484.323 57.48C484.856 56.1467 485.683 55.1333 486.803 54.44C487.923 53.72 489.176 53.36 490.563 53.36ZM509.202 74L499.562 64.48V74H495.562V44.56H499.562V62.96L508.522 53.88H513.522L503.882 63.56L514.362 74H509.202ZM533.699 64H519.299C519.432 68.72 521.579 71.08 525.739 71.08C528.059 71.08 530.179 70.32 532.099 68.8L533.339 71.68C532.432 72.48 531.272 73.12 529.859 73.6C528.472 74.0533 527.072 74.28 525.659 74.28C522.432 74.28 519.899 73.36 518.059 71.52C516.219 69.6533 515.299 67.1067 515.299 63.88C515.299 61.8267 515.699 60 516.499 58.4C517.326 56.8 518.472 55.56 519.939 54.68C521.406 53.8 523.072 53.36 524.939 53.36C527.659 53.36 529.792 54.24 531.339 56C532.912 57.76 533.699 60.2 533.699 63.32V64ZM525.019 56.36C523.499 56.36 522.259 56.8133 521.299 57.72C520.339 58.6267 519.726 59.92 519.459 61.6H530.139C529.979 59.8933 529.459 58.6 528.579 57.72C527.699 56.8133 526.512 56.36 525.019 56.36ZM548.375 53.36C548.988 53.36 549.628 53.4533 550.295 53.64L550.215 57.32C549.495 57.0533 548.708 56.92 547.855 56.92C546.015 56.92 544.628 57.48 543.695 58.6C542.788 59.6933 542.335 61.08 542.335 62.76V74H538.335V59.52C538.335 57.4133 538.228 55.52 538.015 53.84H541.775L542.135 57.48C542.668 56.1467 543.495 55.1333 544.615 54.44C545.735 53.72 546.988 53.36 548.375 53.36Z" fill="black"/>
</svg>
